<?xml version="1.0" encoding="UTF-8" standalone="no"?>
<!-- Created with Inkscape (http://www.inkscape.org/) -->

<svg
   version="1.1"
   id="svg1"
   width="950.57507"
   height="836.82782"
   viewBox="0 0 950.57505 836.82784"
   sodipodi:docname="ForceFinder_Logo.svg"
   inkscape:version="1.4 (86a8ad7, 2024-10-11)"
   inkscape:export-filename="ForceFinder_Logo_test.png"
   inkscape:export-xdpi="96"
   inkscape:export-ydpi="96"
   xmlns:inkscape="http://www.inkscape.org/namespaces/inkscape"
   xmlns:sodipodi="http://sodipodi.sourceforge.net/DTD/sodipodi-0.dtd"
   xmlns:xlink="http://www.w3.org/1999/xlink"
   xmlns="http://www.w3.org/2000/svg"
   xmlns:svg="http://www.w3.org/2000/svg">
  <defs
     id="defs1">
    <rect
       x="-771.08481"
       y="15.294244"
       width="172.06025"
       height="131.27559"
       id="rect2" />
    <linearGradient
       id="linearGradient9"
       inkscape:collect="always">
      <stop
         style="stop-color:#ffffff;stop-opacity:1;"
         offset="0"
         id="stop9" />
      <stop
         style="stop-color:#8c8c8c;stop-opacity:1;"
         offset="1"
         id="stop10" />
    </linearGradient>
    <rect
       x="-20083.984"
       y="-1697.2382"
       width="25005.975"
       height="17255.254"
       id="rect67" />
    <rect
       x="-1474.4904"
       y="-1179.5923"
       width="2182.2458"
       height="2064.2866"
       id="rect66" />
    <linearGradient
       id="swatch50"
       inkscape:swatch="solid">
      <stop
         style="stop-color:#fdfffe;stop-opacity:1;"
         offset="0"
         id="stop50" />
    </linearGradient>
    <rect
       x="-7996.0596"
       y="-3851.7605"
       width="1348.9287"
       height="1462.6938"
       id="rect22" />
    <linearGradient
       id="swatch21"
       inkscape:swatch="solid">
      <stop
         style="stop-color:#0c1e2f;stop-opacity:1;"
         offset="0"
         id="stop21" />
    </linearGradient>
    <linearGradient
       inkscape:collect="always"
       xlink:href="#swatch21"
       id="linearGradient21"
       x1="-7707.9365"
       y1="883.16095"
       x2="1392.0627"
       y2="883.16095"
       gradientUnits="userSpaceOnUse"
       gradientTransform="translate(-3086.3421,1248.408)" />
    <linearGradient
       inkscape:collect="always"
       xlink:href="#swatch21"
       id="linearGradient41"
       gradientUnits="userSpaceOnUse"
       x1="-7707.9365"
       y1="883.16095"
       x2="1392.0627"
       y2="883.16095"
       gradientTransform="translate(-3086.3421,1248.408)" />
    <linearGradient
       inkscape:collect="always"
       xlink:href="#swatch21"
       id="linearGradient42"
       gradientUnits="userSpaceOnUse"
       x1="-7707.9365"
       y1="883.16095"
       x2="1392.0627"
       y2="883.16095"
       gradientTransform="translate(-3086.3421,1248.408)" />
    <filter
       inkscape:collect="always"
       style="color-interpolation-filters:sRGB"
       id="filter58"
       x="-0.085464789"
       y="-0.071359792"
       width="1.1709913"
       height="1.1427378">
      <feGaussianBlur
         inkscape:collect="always"
         stdDeviation="11.104287"
         id="feGaussianBlur58" />
    </filter>
    <filter
       inkscape:collect="always"
       style="color-interpolation-filters:sRGB"
       id="filter59"
       x="-0.074020566"
       y="-0.07867061"
       width="1.1480608"
       height="1.1573358">
      <feGaussianBlur
         inkscape:collect="always"
         stdDeviation="24.288178"
         id="feGaussianBlur59" />
    </filter>
    <rect
       x="-20083.984"
       y="-1697.2382"
       width="25005.975"
       height="17255.254"
       id="rect67-5" />
    <linearGradient
       inkscape:collect="always"
       xlink:href="#linearGradient9"
       id="linearGradient10"
       x1="376.76462"
       y1="1254.197"
       x2="354.99942"
       y2="1438.6469"
       gradientUnits="userSpaceOnUse"
       gradientTransform="translate(324.63852,-525.94544)" />
  </defs>
  <sodipodi:namedview
     id="namedview1"
     pagecolor="#505050"
     bordercolor="#eeeeee"
     borderopacity="1"
     inkscape:showpageshadow="0"
     inkscape:pageopacity="0"
     inkscape:pagecheckerboard="0"
     inkscape:deskcolor="#505050"
     inkscape:zoom="0.78460889"
     inkscape:cx="79.657522"
     inkscape:cy="400.83665"
     inkscape:window-width="2560"
     inkscape:window-height="1369"
     inkscape:window-x="-8"
     inkscape:window-y="-8"
     inkscape:window-maximized="1"
     inkscape:current-layer="Magnifying_Glass" />
  <g
     inkscape:groupmode="layer"
     inkscape:label="Image"
     id="g1"
     transform="translate(-28.687269,-9.2940641)">
    <g
       id="Detective"
       transform="matrix(0.07506134,0,0,0.07506134,573.1044,843.18985)">
      <path
         style="fill:#0a1b2c;fill-opacity:1;stroke-width:13.277"
         d="m -5234.63,-7205.0857 c 20.1818,-3.0518 50.0549,-2.9702 66.3848,0.1812 16.3298,3.1514 -0.1826,5.6483 -36.6942,5.5487 -36.5116,-0.1 -49.8724,-2.6782 -29.6906,-5.7299 z"
         id="path3" />
      <path
         style="fill:#0a1b2c;fill-opacity:1;stroke-width:13.277"
         d="m -4979.3465,-7246.5097 c -2.4326,-2.465 -45.0025,-4.1704 -94.5997,-3.7898 -83.7285,0.6426 -110.2162,-9.2757 -110.8745,-41.5168 -0.1118,-5.4768 26.6825,-9.9577 59.543,-9.9577 32.8605,0 59.7463,5.9746 59.7463,13.2769 0,19.5121 53.0361,16.2224 53.5115,-3.3192 0.2241,-9.2105 6.4262,-6.2562 13.9367,6.6384 17.084,29.3314 62.4995,29.9039 94.2304,1.1879 13.3988,-12.1258 28.6328,-17.7756 33.8533,-12.5551 5.2205,5.2205 0.9616,14.7638 -9.4643,21.2073 -12.9168,7.9831 2.0105,13.1494 46.8539,16.2163 55.3795,3.7874 49.3169,5.4987 -38.2519,10.7972 -57.234,3.4631 -106.0522,4.2797 -108.4847,1.8146 z"
         id="path4" />
      <ellipse
         style="display:inline;opacity:1;fill:#f2f2f2;fill-opacity:1;stroke:#ffffff;stroke-width:1.3523;stroke-opacity:1"
         id="path20"
         cx="-2131.5691"
         cy="-6244.2788"
         rx="4786.6978"
         ry="4786.6982" />
      <ellipse
         style="display:inline;opacity:1;fill:#0f212f;fill-opacity:1;stroke:url(#linearGradient41);stroke-width:1.28524;stroke-opacity:1"
         id="path20-8"
         cx="-6244.2788"
         cy="2131.5691"
         rx="4549.3569"
         ry="4549.3574"
         inkscape:transform-center-x="1403.0656"
         inkscape:transform-center-y="-142.0826"
         transform="rotate(90)" />
      <ellipse
         style="display:inline;opacity:1;fill:#41a5f9;fill-opacity:1;stroke:url(#linearGradient42);stroke-width:1.28524;stroke-opacity:1"
         id="ellipse40"
         cx="-6244.2788"
         cy="2131.5691"
         rx="4276.9766"
         ry="4276.9771"
         inkscape:transform-center-x="1403.0656"
         inkscape:transform-center-y="-142.0826"
         transform="rotate(90)" />
      <ellipse
         style="display:inline;opacity:1;fill:#0f212f;fill-opacity:1;stroke:url(#linearGradient21);stroke-width:1.28524;stroke-opacity:1"
         id="ellipse41"
         cx="-6244.2788"
         cy="2131.5691"
         rx="4067.4534"
         ry="4067.4539"
         inkscape:transform-center-x="1403.0656"
         inkscape:transform-center-y="-142.0826"
         transform="rotate(90)" />
      <path
         style="opacity:1;fill:#0b1c2c;fill-opacity:1;stroke:#0c1e2f;stroke-width:1.11656;stroke-opacity:1"
         d="m -4338.0665,-9126.6093 c 0,0 319.5983,-1221.3157 521.4314,-1622.4327 213.0789,-423.466 603.7871,-354.913 672.5413,-356.987 355.7836,37.516 366.2051,197.645 906.6028,268.222 556.4244,72.671 179.1744,2.397 953.1144,-223.451 773.94008,-225.849 1244.581255,1982.7993 1244.581255,1982.7993 323.429105,171.9413 714.853005,284.4642 849.586705,455.0445 339.43064,429.7378 -603.2611,806.3326 -1350.04532,1032.1812 -746.78434,225.8486 -1878.94494,372.8431 -2864.93594,84.6932 -885.4792,-258.7759 -973.3205,-148.5108 -1928.0614,-889.2788 -427.1137,-331.3906 997.7711,-785.2414 995.1848,-730.7907 z"
         id="path22-3"
         sodipodi:nodetypes="cscsscssssc" />
      <path
         style="opacity:1;fill:#fdfffe;fill-opacity:1;stroke:#0c1e2f;stroke-opacity:1"
         d="m -4124.943,-8975.7994 c 0,0 272.7749,-1264.6836 409.1623,-1636.6496 136.3875,-371.965 632.3418,-347.168 632.3418,-347.168 0,0 384.3646,223.18 892.7177,285.174 508.3532,61.994 185.9829,-74.393 892.7177,-272.775 706.7349,-198.381 1066.30176,1884.6266 1066.30176,1884.6266 0,0 309.971395,223.1795 781.128,384.3646 471.15664,161.1851 -508.353205,657.1394 -1190.29026,855.5212 -681.9372,198.3817 -1715.7865,327.4992 -2616.1589,74.3931 -808.5884,-227.3045 -864.1534,-162.2154 -1760.6378,-781.128 -356.773,-246.308 933.0939,-442.9942 892.7177,-446.3589 z"
         id="path22"
         sodipodi:nodetypes="cscsscssssc" />
      <path
         style="opacity:1;fill:#fdfffe;fill-opacity:1;stroke:#0c1e2f;stroke-opacity:1"
         d="m -3740.5783,-7450.7399 c 983.7682,264.1636 2087.8623,250.1263 2950.92799,-24.7977 0,0 12.39885,483.5554 -61.99429,681.9371 -74.39315,198.3817 -247.9772,830.7235 -471.1566,1128.2961 -223.1794,297.5725 -520.752,396.7634 -743.9314,458.7577 -223.1794,61.9943 -483.5554,-37.1966 -706.7349,-198.3817 -223.1794,-161.1852 -334.7691,-235.5783 -533.1508,-520.752 -198.3817,-285.1738 -433.96,-1525.0595 -433.96,-1525.0595 z"
         id="path23"
         sodipodi:nodetypes="ccsssssc" />
      <path
         style="opacity:0.515439;fill:#b4b3af;fill-opacity:1;stroke:#0c1e2f;stroke-opacity:1"
         d="m -3705.1951,-7441.5341 c 306.694,147.7192 531.2422,166.8686 813.2491,175.5052 162.188,4.9672 335.3066,33.6273 526.0037,6.9313 267.2485,-37.4125 109.5125,816.0295 102.1921,1055.6541 0,0 -423.5825,131.8471 -358.4193,333.4492 80.4487,248.8922 831.6288,55.5422 477.0561,175.7322 -194.8186,66.038 -129.0874,131.2387 -134.7241,239.6195 -4.7107,90.5752 110.1698,112.476 179.7938,135.0233 241.8784,78.3305 21.3348,88.5054 -70.5695,91.6878 -231.4909,8.016 -371.562,-43.4184 -594.7415,-204.6035 -223.1794,-161.1852 -306.6587,-254.3186 -505.0404,-539.4923 -198.3817,-285.1738 -434.8,-1469.5068 -434.8,-1469.5068 z"
         id="path23-7"
         sodipodi:nodetypes="csscsssssssc" />
      <path
         style="opacity:1;fill:#0e1e2b;fill-opacity:1;stroke:#0c1e2f;stroke-opacity:1"
         d="m -2823.0629,-5938.0793 c 396.7634,-33.0636 776.995,-33.0636 1140.6948,0 -102.4512,-119.3422 -104.6368,-249.122 -557.9486,-272.7749 -493.5491,41.0416 -453.9154,170.9469 -582.7462,272.7749 z"
         id="path24"
         sodipodi:nodetypes="cccc" />
      <path
         style="opacity:1;fill:#0e1e2b;fill-opacity:1;stroke:#0c1e2f;stroke-opacity:1"
         d="m -4125.4298,-8977.0077 112.5767,-581.3053 c 1226.344,441.6315 2472.293,396.7419 3655.29448,-144.0563 65.69716,209.472 111.73528,423.3292 149.03648,634.6942 -1687.42216,953.0123 -2879.67626,677.5806 -3916.90766,90.6674 z"
         id="path26"
         sodipodi:nodetypes="ccccc" />
      <path
         style="opacity:1;fill:#0f1f2e;fill-opacity:1;stroke:#0c1e2f;stroke-opacity:1"
         d="m -3734.4952,-7367.7557 c 0,0 35.8414,-3.2583 78.1993,42.358 42.358,45.6163 123.8157,439.8712 182.4652,625.5947 58.6495,185.7234 149.882,492.0041 306.2807,768.9601 156.3987,276.956 374.7051,381.2218 374.7051,381.2218 0,0 -185.7234,-303.0225 -303.0224,-553.912 -117.299,-250.8895 -140.1071,-348.6387 -182.4651,-687.5025 -42.358,-338.8638 6.5166,-439.8712 6.5166,-439.8712 l 1000.2998,-26.0665 -1479.2707,-198.7566 z"
         id="path27" />
      <path
         style="opacity:1;fill:#0f1f2e;fill-opacity:1;stroke:#0c1e2f;stroke-width:0.808915;stroke-opacity:1"
         d="m -2432.7668,-6508.4972 c 62.579,53.6392 102.1386,95.1403 202.8191,89.3634 105.8179,-6.0717 146.7172,-63.1047 196.377,-98.1797 49.7734,-35.1553 83.0478,-137.7882 13.6216,-132.6904 -52.2337,3.8355 -110.4969,42.9125 -217.7603,46.1775 -122.1256,3.7175 -193.0244,-46.2567 -239.8627,-26.8195 -59.5428,24.7093 44.8053,122.1487 44.8053,122.1487 z"
         id="path28"
         sodipodi:nodetypes="csssssc" />
      <path
         style="opacity:0.168646;fill:#0b1c2c;fill-opacity:1;stroke:#0c1e2f;stroke-opacity:1"
         d="m -1076.8974,-7915.0262 c -599.6071,36.7132 -1174.7353,183.3031 -1768.412,137.2218 -705.574,-54.7667 -1409.1878,-324.2752 -2090.5773,-796.8781 l 804.7807,-283.6522 450.7541,-710.2334 125.3241,-723.4079 c 124.4401,-317.44 287.5087,-263.822 400.2131,-248.482 118.3774,16.112 171.5106,105.545 323.2316,197.897 151.7209,92.351 323.0838,218.068 441.9697,263.862 108.6253,41.842 223.6541,24.232 244.0728,32.983 5.7251,42.938 1.1382,56.4175 -6.5966,92.3519 -9.4115,43.7246 -6.5301,463.3523 120.7057,728.7566 189.583,395.4556 -929.6165,688.2791 -929.6165,688.2791 205.0862,87.1985 658.3758,180.4956 812.1729,250.9264 166.3313,76.1708 76.8434,254.6039 194.7197,267.1524 604.6035,64.3628 579.5957,82.1171 877.258,103.2234 z"
         id="path29"
         sodipodi:nodetypes="csccccssscsscssc" />
      <path
         style="opacity:1;fill:none;fill-opacity:1;stroke:#fdfffe;stroke-width:250;stroke-dasharray:none;stroke-opacity:1"
         d="m -5324.526,-4652.6706 c 437.3065,-678.4923 846.3168,-1392.3547 1401.4518,-1923.5613 -415.5944,-344.0668 -436.1907,-703.3259 -457.9908,-1062.5386 -385.8892,-125.5526 -744.9303,-326.2799 -1053.3788,-668.6665"
         id="path30"
         sodipodi:nodetypes="cccc" />
      <path
         style="opacity:1;fill:#fdfffe;fill-opacity:1;stroke:#fdfffe;stroke-width:1;stroke-dasharray:none;stroke-opacity:1"
         d="m -3690.9596,-6181.166 c 16.287,174.3935 89.5919,206.2423 138.7813,298.3798 0,0 -55.5125,97.147 -131.8423,367.7706 -76.3297,270.6236 -41.6344,541.2472 -41.6344,541.2472 l 208.172,693.9068 999.2257,1942.9387 c -704.3295,-387.0079 -1404.2151,-785.8661 -2053.9639,-1318.4227 284.4433,-215.1988 574.1371,-422.5217 895.1397,-582.8816 -374.1836,-156.2167 -672.2824,-325.1142 -1144.9461,-464.9175 49.5095,-124.8362 661.6796,-1008.439 1131.068,-1478.0213 z"
         id="path31"
         sodipodi:nodetypes="ccsccccccc" />
      <path
         style="opacity:0.67696;fill:#808080;fill-opacity:1;stroke:#fdfffe;stroke-width:1;stroke-dasharray:none;stroke-opacity:1"
         d="m -2747.4618,-2512.4856 c 0,0 -253.7705,-252.6309 -366.9559,-405.9937 -109.306,-148.1063 -374.7635,-713.5437 -437.224,-882.2557 -58.3905,-157.7185 -58.5568,-374.7634 -58.5568,-374.7634 -26.1763,-20.9411 -778.9897,428.8899 -788.5648,484.0695 -21.0829,121.4965 1651.3015,1183.4685 1651.3015,1178.9433 z"
         id="path32"
         sodipodi:nodetypes="csscsc" />
      <path
         style="opacity:0.769596;fill:#808080;fill-opacity:1;stroke:#fdfffe;stroke-width:1;stroke-dasharray:none;stroke-opacity:1"
         d="m -3636.2343,-4291.9603 c -333.5288,-148.2599 -621.5393,-293.8423 -1100.2729,-450.6437 236.6719,-359.2613 346.7619,-641.6693 1065.1578,-1293.4059 l 111.1978,158.018 c 0,0 -0.1776,3.0383 -47.6608,101.1383 -21.5894,44.6037 -47.2773,116.5701 -69.3895,214.8975 -69.1783,307.6187 -66.3557,330.2213 -58.5251,561.8415 3.4879,103.1683 63.3333,244.2903 97.8728,368.1964 44.6661,160.2341 83.3747,284.4492 83.3747,284.4492 z"
         id="path33"
         sodipodi:nodetypes="ccccsssscc" />
      <path
         style="opacity:0.758;fill:#ffffff;fill-opacity:1;stroke:#fdfffe;stroke-width:1;stroke-dasharray:none;stroke-opacity:1"
         d="m -2107.9105,-4585.5879 c 389.5905,-245.2693 808.8924,-485.2448 1059.7275,-869.2695 61.04536,334.4628 187.3558,582.9529 -454.169,1670.1695 -168.8478,-266.9667 -371.5994,-533.9333 -605.5585,-800.9 z"
         id="path34"
         sodipodi:nodetypes="cccc" />
      <path
         style="opacity:0.758;fill:#ffffff;fill-opacity:1;stroke:#fdfffe;stroke-width:1;stroke-dasharray:none;stroke-opacity:1"
         d="m -2386.2721,-4580.7044 c -387.745,-215.5372 -753.9014,-459.8591 -1025.5427,-830.2012 -61.3538,604.16 203.5859,1103.9061 459.0525,1606.6836 z"
         id="path35"
         sodipodi:nodetypes="cccc" />
      <path
         style="opacity:0.513064;fill:#808080;fill-opacity:1;stroke:#fdfffe;stroke-width:1;stroke-dasharray:none;stroke-opacity:1"
         d="m -2786.7221,-4483.0336 c 48.8354,107.4378 43.9518,78.1366 39.0683,161.1567 -4.8835,83.0201 -180.6909,376.0323 -180.6909,376.0323 -242.0866,-398.5114 -383.0004,-824.0022 -429.7512,-1274.6031 186.089,235.9747 338.9163,397.1103 571.3738,737.4141 z"
         id="path36"
         sodipodi:nodetypes="csccc" />
      <path
         style="opacity:1;fill:#ffffff;fill-opacity:1;stroke:#fdfffe;stroke-width:1;stroke-dasharray:none;stroke-opacity:1"
         d="m -2860.3145,-3470.4292 c 62.7282,145.2935 128.4309,284.638 207.7848,396.6801 l 163.7093,-673.7265 -113.3372,-69.2617 z"
         id="path37"
         sodipodi:nodetypes="ccccc" />
      <path
         style="opacity:1;fill:#ffffff;fill-opacity:1;stroke:#fdfffe;stroke-width:1;stroke-dasharray:none;stroke-opacity:1"
         d="m -895.80349,-5907.1785 c 590.17113,1014.0782 -558.29051,2375.883 -837.43581,3563.8245 551.1116,-507.8618 1198.74093,-907.1411 1630.79606,-1548.9414 l -680.02307,-346.308 1070.40667,-453.3487 C 148.83656,-5052.8965 38.261555,-5396.4453 -769.87329,-6165.3354 Z"
         id="path38"
         sodipodi:nodetypes="ccccccc" />
      <path
         style="opacity:0.862233;fill:#808080;fill-opacity:1;stroke:#fdfffe;stroke-width:1;stroke-dasharray:none;stroke-opacity:1"
         d="m -832.83839,-6064.5912 c 419.50115,468.5952 715.84675,908.2127 850.028845,1309.674 -237.858695,196.9456 -536.717185,363.3912 -875.214885,510.0173 597.91756,368.467 407.0411,293.2375 522.61031,390.3836 -316.5968,501.9495 -775.85788,861.2347 -1183.74388,1271.895 93.5629,-499.0019 280.1981,-969.4101 483.2255,-1449.8508 247.85669,-586.524 483.09266,-1188.0002 140.12901,-1874.7064 z"
         id="path39"
         sodipodi:nodetypes="cccccscc" />
      <path
         style="opacity:1;fill:#ffffff;fill-opacity:1;stroke:#fdfffe;stroke-width:1;stroke-dasharray:none;stroke-opacity:1"
         d="m -1860.7051,-3122.6648 c 0,0 132.6467,-112.135 223.1252,-212.7473 91.2426,-101.462 -25.9448,-160.8577 -25.9448,-160.8577 -95.733,-99.1158 -167.1004,-215.8289 -249.07,-342.4713 l -93.4013,72.6454 z"
         id="path40"
         sodipodi:nodetypes="cscccc" />
      <path
         style="opacity:1;fill:none;fill-opacity:1;stroke:#fdfffe;stroke-width:250;stroke-dasharray:none;stroke-opacity:1"
         d="m 993.49096,-8408.2331 c -30.423,251.4279 -461.0023,502.8559 -1047.616405,754.2838 15.668,633.2904 -246.036485,781.179 -439.998835,1047.6163 675.95103,691.3347 529.014574,529.2309 944.95007,1060.0483 216.28945,446.2951 375.14706,807.837 402.35439,967.1591"
         id="path41"
         sodipodi:nodetypes="ccccc" />
    </g>
    <g
       id="Magnifying_Glass"
       transform="matrix(0.07506134,0,0,0.07506134,492.81757,265.7122)"
       style="display:inline">
      <path
         style="opacity:1;fill:#0a1b2c;fill-opacity:1;stroke:#3393f6;stroke-width:2;stroke-dasharray:none;stroke-opacity:1"
         d="m 2689.8024,1146.2871 -1373.2746,2474.1643 -22.6988,760.4082 397.2282,226.9876 533.4208,-102.1444 329.1319,-317.7826 1100.8896,-1952.0929 261.0357,-431.2763 z"
         id="path64"
         sodipodi:nodetypes="ccccccccc" />
      <path
         id="path42-7"
         style="opacity:0.285;fill:#0a1b2c;fill-opacity:1;stroke:#fdfffe;stroke-width:1;stroke-dasharray:none;stroke-opacity:1"
         d="M 4170.2051,-2148.5684 A 2184.9873,2148.9763 0 0 0 1985.2188,0.40625 2184.9873,2148.9763 0 0 0 2658.4609,1544.9453 c 2.5271,-4.1039 5.0151,-8.2311 7.5801,-12.3125 16.5508,-25.5346 34.2774,-50.3066 49.5,-76.6914 21.0551,-36.4942 48.155,-52.3523 70.9688,-52.7187 38.0229,-0.6107 64.142,41.8138 30.5429,103.4746 -16.5817,30.4306 -36.9631,58.4792 -55.6992,87.5527 -6.6207,10.6214 -13.1253,21.3104 -19.6055,32.0137 a 2184.9873,2148.9763 0 0 0 661.9043,380.5957 c 8.3704,-21.3191 16.9328,-42.511 29.2598,-61.9824 14.2773,-25.5476 29.5435,-50.5669 42.0899,-77.0391 19.5482,-41.2455 48.1007,-58.9814 72.0703,-58.6133 35.0325,0.5379 60.2738,39.7505 33.3047,100.7656 -13.8258,31.2797 -31.7418,60.4476 -48.3907,90.2481 -9.4114,14.2818 -15.6615,29.8831 -21.7773,45.6445 a 2184.9873,2148.9763 0 0 0 659.9961,103.5 A 2184.9873,2148.9763 0 0 0 6355.1934,0.40625 2184.9873,2148.9763 0 0 0 4170.2051,-2148.5684 Z" />
      <path
         id="path42-7-6"
         style="opacity:1;fill:#0a1c2e;fill-opacity:1;stroke:#fdfffe;stroke-width:1;stroke-dasharray:none;stroke-opacity:1"
         d="M 4170.2051,-2148.5684 A 2184.9873,2148.9763 0 0 0 1985.2188,0.40625 2184.9873,2148.9763 0 0 0 2658.4609,1544.9453 c 2.5271,-4.1039 5.0151,-8.2311 7.5801,-12.3125 16.5508,-25.5346 34.2774,-50.3066 49.5,-76.6914 21.0551,-36.4942 48.155,-52.3523 70.9688,-52.7187 38.0229,-0.6107 64.142,41.8138 30.5429,103.4746 -16.5817,30.4306 -36.9631,58.4792 -55.6992,87.5527 -6.6207,10.6214 -13.1253,21.3104 -19.6055,32.0137 a 2184.9873,2148.9763 0 0 0 661.9043,380.5957 c 8.3704,-21.3191 16.9328,-42.511 29.2598,-61.9824 14.2773,-25.5476 29.5435,-50.5669 42.0899,-77.0391 19.5482,-41.2455 48.1007,-58.9814 72.0703,-58.6133 35.0325,0.5379 60.2738,39.7505 33.3047,100.7656 -13.8258,31.2797 -31.7418,60.4476 -48.3907,90.2481 -9.4114,14.2818 -15.6615,29.8831 -21.7773,45.6445 a 2184.9873,2148.9763 0 0 0 659.9961,103.5 A 2184.9873,2148.9763 0 0 0 6355.1934,0.40625 2184.9873,2148.9763 0 0 0 4170.2051,-2148.5684 Z" />
      <circle
         style="opacity:1;fill:#59bffd;fill-opacity:1;stroke:#3393f6;stroke-width:1.00427;stroke-dasharray:none;stroke-opacity:1"
         id="path42-7-6-4"
         cx="4170.2056"
         cy="0.40700403"
         r="1124.4978" />
      <path
         id="path44"
         style="opacity:1;fill:none;fill-opacity:1;stroke:#f2f2f2;stroke-width:250;stroke-dasharray:none;stroke-opacity:1"
         d="M 2481.4434,1409.043 1264.8945,3650.0566 c -334.5579,1382.0555 1100.157,1019.3807 1296.586,624.2813 l 1200.541,-2160.9766 -47.3711,70.5684 -207.4395,-130.3438 c -0.2359,0.6055 -0.4679,1.2092 -0.705,1.8145 -9.9387,25.7557 -23.429,49.8862 -34.5743,75.1016 -7.5341,18.3716 -18.9867,34.7371 -29.1211,51.7109 -12.3603,22.4692 -25.6955,44.3871 -38.0156,66.875 -53.9829,98.5346 -153.7213,43.6771 -99.4433,-54.6953 13.053,-23.657 26.9447,-46.8402 40.0703,-70.459 7.8032,-13.0158 16.8316,-25.4945 22.75,-39.4219 10.5254,-23.6926 22.9618,-46.4808 32.6699,-70.5332 2.8562,-7.2804 5.7398,-14.5426 8.6934,-21.7695 l -643.836,-404.5547 c -1.4426,2.2023 -2.9198,4.383 -4.3457,6.5957 -10.7775,17.2899 -21.2616,34.749 -31.8008,52.1797 -12.217,18.1251 -22.9786,37.1508 -34.2441,55.8672 -3.6779,6.6203 -6.9874,13.433 -10.291,20.2441 -49.0321,101.0894 -151.3096,51.3229 -102.0547,-49.6582 4.7953,-9.8311 9.6193,-19.6531 15.1133,-29.1211 11.3213,-18.8013 22.1297,-37.9281 34.4043,-56.1347 11.146,-18.3571 22.1309,-36.8072 33.5605,-54.9942 1.1665,-1.7996 2.3681,-3.5763 3.5449,-5.3691 z" />
      <path
         style="opacity:1;fill:#ffffff;fill-opacity:1;stroke:#fdfffe;stroke-width:1;stroke-dasharray:none;stroke-opacity:1"
         d="m 1640.8208,3781.6064 546.346,362.1844 c -114.281,58.8383 -252.811,131.4833 -399.017,30.6936 -156.513,-101.6674 -169.286,-242.5369 -147.329,-392.878 z"
         id="path45"
         sodipodi:nodetypes="cccc" />
      <path
         style="opacity:1;fill:#ffffff;fill-opacity:1;stroke:#fdfffe;stroke-width:1;stroke-dasharray:none;stroke-opacity:1"
         d="m 1763.5948,3499.2253 577.04,417.4329 865.559,-1479.4311 -662.982,-374.4618 z"
         id="path46" />
      <path
         id="path42"
         style="opacity:1;fill:none;fill-opacity:1;stroke:#f2f2f2;stroke-width:250;stroke-dasharray:none;stroke-opacity:1"
         d="M 4170.2051,-2148.5684 A 2184.9873,2148.9763 0 0 0 1985.2188,0.40625 2184.9873,2148.9763 0 0 0 2658.4609,1544.9453 c 2.5271,-4.1039 5.0151,-8.2311 7.5801,-12.3125 16.5508,-25.5346 34.2774,-50.3066 49.5,-76.6914 21.0551,-36.4942 48.155,-52.3523 70.9688,-52.7187 38.0229,-0.6107 64.142,41.8138 30.5429,103.4746 -16.5817,30.4306 -36.9631,58.4792 -55.6992,87.5527 -6.6207,10.6214 -13.1253,21.3104 -19.6055,32.0137 a 2184.9873,2148.9763 0 0 0 661.9043,380.5957 c 8.3704,-21.3191 16.9328,-42.511 29.2598,-61.9824 14.2773,-25.5476 29.5435,-50.5669 42.0899,-77.0391 19.5482,-41.2455 48.1007,-58.9814 72.0703,-58.6133 35.0325,0.5379 60.2738,39.7505 33.3047,100.7656 -13.8258,31.2797 -31.7418,60.4476 -48.3907,90.2481 -9.4114,14.2818 -15.6615,29.8831 -21.7773,45.6445 a 2184.9873,2148.9763 0 0 0 659.9961,103.5 A 2184.9873,2148.9763 0 0 0 6355.1934,0.40625 2184.9873,2148.9763 0 0 0 4170.2051,-2148.5684 Z" />
      <path
         style="opacity:1;fill:#0a1b2c;fill-opacity:1;stroke:#0a1b2c;stroke-width:1;stroke-dasharray:none;stroke-opacity:1"
         d="m 2349.3211,1934.2106 391.8026,-793.7364 300.5094,323.5955 -385.8788,590.1676 z"
         id="path65"
         sodipodi:nodetypes="ccccc" />
      <path
         style="opacity:0.665929;mix-blend-mode:normal;fill:#808080;fill-opacity:1;stroke:#fdfffe;stroke-width:1;stroke-dasharray:none;stroke-opacity:1"
         d="m 1821.3178,3492.9479 343.768,245.5487 620.011,-1092.6917 c -8.375,-166.5953 -113.0661,-378.4911 -232.0531,-529.2846 z"
         id="path47"
         sodipodi:nodetypes="ccccc" />
      <ellipse
         style="opacity:1;fill:none;fill-opacity:1;stroke:#fdfffe;stroke-width:350;stroke-dasharray:none;stroke-opacity:1"
         id="path42-79"
         ry="1549.0596"
         rx="1575.236"
         cy="0.40700403"
         cx="4170.2056" />
      <path
         style="opacity:0.7;mix-blend-mode:normal;fill:#808080;fill-opacity:1;stroke:#fdfffe;stroke-width:1;stroke-dasharray:none;stroke-opacity:1"
         d="m 1653.0978,3818.4387 263.965,184.1616 12.277,147.3292 -67.526,42.971 c -213.056,-165.8159 -221.171,-273.0776 -208.716,-374.4618 z"
         id="path48"
         sodipodi:nodetypes="ccccc" />
      <text
         xml:space="preserve"
         transform="matrix(13.322437,0,0,13.322437,13403.839,-1068.2789)"
         id="text2"
         style="font-style:normal;font-variant:normal;font-weight:bold;font-stretch:normal;font-size:106.667px;font-family:Consolas;-inkscape-font-specification:'Consolas Bold';text-align:start;letter-spacing:-10px;writing-mode:lr-tb;direction:ltr;white-space:pre;shape-inside:url(#rect2);display:inline;opacity:1;fill:#00d455;fill-opacity:1;fill-rule:evenodd;stroke:#000000;stroke-width:1;stroke-linejoin:round;stroke-dasharray:none;stroke-opacity:0.701961"><tspan
           x="-771.08398"
           y="107.84729"
           id="tspan3"><tspan
             style="fill:#000000"
             id="tspan1">{F}</tspan></tspan></text>
      <path
         style="opacity:0.65;fill:#ffffff;fill-opacity:1;stroke:#8b949e;stroke-width:2;stroke-dasharray:none;stroke-opacity:1;filter:url(#filter59)"
         d="m 4526.3502,-940.88949 c 166.33,91.8232 259.946,201.8248 378.831,305.5092 60.852,57.2137 121.533,114.743 144.2,241.9632 7.197,98.3069 -12.941,141.943 -51.325,149.0885 -156.201,75.6956 -195.368,5.0974 -251.74,-43.9933 -50.731,-54.7912 -68.989,-103.0881 -87.986,-151.5326 -10.466,-27.365 -29.468,-40.5032 -21.997,-97.7629 -92.213,16.7016 -160.168,10.8719 -212.634,-9.7763 -104.887,-40.6133 -113.803,-96.0213 -156.421,-149.0885 -24.968,-67.2521 -23.897,-125.8241 9.776,-173.5292 l 78.211,-83.0985 c 70.292,-19.1381 126.861,-14.2613 171.085,12.2204 z"
         id="path59"
         sodipodi:nodetypes="cccccccccccc" />
      <path
         style="fill:#0a1b2c;fill-opacity:1;stroke:#0a1b2c;stroke-width:1;stroke-dasharray:none;stroke-opacity:1"
         d="m 3096.027,2323.7057 361.5745,-711.6889 352.3289,172.4553 -407.4702,711.0798 z"
         id="path65-0"
         sodipodi:nodetypes="ccccc" />
      <path
         style="opacity:0.7;fill:#808080;fill-opacity:1;stroke:#0a1b2c;stroke-width:1;stroke-dasharray:none;stroke-opacity:1"
         d="m 3195.5356,2025.2786 -341.145,-211.5962 125.2304,-190.0049 c 34.4579,133.867 112.4751,267.7341 215.9146,401.6011 z"
         id="path66"
         sodipodi:nodetypes="cccc" />
      <path
         style="opacity:0.65;mix-blend-mode:normal;fill:#ffffff;fill-opacity:1;stroke:#3393f6;stroke-width:2;stroke-dasharray:none;stroke-opacity:1;filter:url(#filter58)"
         d="m 4880.6122,38.60791 c -44.001,76.468 -56.867,148.146 -16.277,211.6001 9.408,35.2667 41.026,70.5334 89.523,105.8001 46.326,36.94 105.938,54.7055 158.712,-24.4154 60.974,-63.9066 72.332,-146.1194 3.251,-249.0421 -52.153,-71.0303 -118.82,-120.6538 -235.209,-43.9427 z"
         id="path58"
         sodipodi:nodetypes="cccccc" />
      <path
         style="opacity:0.7;fill:#aaaaaa;fill-opacity:1;fill-rule:evenodd;stroke:#fdfffe;stroke-width:1;stroke-linejoin:round;stroke-dasharray:none"
         d="m 868.20746,391.0129 c -12.50308,-2.79116 -27.84801,-5.28952 -36.96109,-11.47068 -20.34148,-6.04378 -46.17069,-19.11336 -66.3951,-36.38919 -19.55403,-16.70318 -30.64082,-40.48314 -32.03378,-64.84534 -3.64143,-63.68713 24.31631,-103.43347 86.32094,-120.53201 5.41975,-3.44242 18.05132,-9.76957 31.86301,-16.56876 -24.58296,-8.84385 -67.65124,7.87287 -93.70777,30.03915 -15.59324,13.26516 -44.64989,44.60365 -44.01415,93.58086 0.50251,38.71377 21.69633,76.16852 50.18338,99.8322 25.96693,21.57026 63.21606,33.91166 104.74456,26.35377 z"
         id="path2"
         sodipodi:nodetypes="ccssccsssc"
         transform="matrix(13.322437,0,0,13.322437,-7074.9227,-3539.9341)" />
    </g>
    <g
       id="Text">
      <path
         style="fill:#0f212f;fill-opacity:1;stroke:#f2f2f2;stroke-width:10;stroke-linejoin:round;stroke-dasharray:none;stroke-opacity:1"
         d="M 67.482953,685.88647 33.687129,841.12195 971.1833,714.04965 c -7.93791,-16.9495 -9.41648,-23.59241 -14.23329,-43.01171 8.04401,-10.44239 16.67407,-24.7958 17.25963,-38.81957 0.39531,-9.46721 -1.60477,-19.05571 -2.80104,-28.1178 l -345.61864,43.70927 c -21.75532,3.04032 -34.48895,8.34815 -33.27204,-4.25434 l 4.88355,-29.54149 -109.27315,13.74363 -4.601,23.50844 c -3.50133,14.35272 -7.88247,16.22955 -27.54039,19.70219 L 194.9672,710.86336 c -13.80524,1.26787 -25.79563,4.96435 -23.9237,-10.49932 l 5.4873,-27.31999 z"
         id="path10"
         sodipodi:nodetypes="ccccsccccccccccc" />
      <text
         xml:space="preserve"
         style="font-style:normal;font-variant:normal;font-weight:normal;font-stretch:normal;font-size:166.667px;font-family:Consolas;-inkscape-font-specification:Consolas;text-align:start;writing-mode:lr-tb;direction:ltr;text-anchor:start;fill:url(#linearGradient10);fill-opacity:1;stroke:#9d9d9d;stroke-opacity:1"
         x="217.48434"
         y="868.36615"
         id="text2-2"
         transform="matrix(1.0427239,-0.14339933,-0.2227847,0.98966487,0,0)"><tspan
           sodipodi:role="line"
           id="tspan2-1"
           x="217.48434"
           y="868.36615"
           style="font-style:normal;font-variant:normal;font-weight:bold;font-stretch:normal;font-size:166.667px;font-family:Consolas;-inkscape-font-specification:'Consolas Bold';fill:url(#linearGradient10);fill-opacity:1;stroke:#9d9d9d;stroke-opacity:1"><tspan
             style="font-size:133.333px;fill:url(#linearGradient10);fill-opacity:1;stroke:#9d9d9d;stroke-opacity:1"
             id="tspan6-6"><tspan
   style="font-size:200px;fill:url(#linearGradient10);fill-opacity:1;stroke:#9d9d9d;stroke-opacity:1"
   id="tspan8-8">F</tspan>ORCE</tspan><tspan
             style="font-size:200px;fill:url(#linearGradient10);fill-opacity:1;stroke:#9d9d9d;stroke-opacity:1"
             id="tspan3-5">F</tspan><tspan
             style="font-size:133.333px;fill:url(#linearGradient10);fill-opacity:1;stroke:#9d9d9d;stroke-opacity:1"
             id="tspan7-7">INDER</tspan></tspan></text>
    </g>
  </g>
</svg>
