<?xml version="1.0" encoding="UTF-8" standalone="no"?>
<!-- Created with Inkscape (http://www.inkscape.org/) -->

<svg
   width="718.69342"
   height="724.53864"
   viewBox="0 0 190.1543 191.70086"
   version="1.1"
   id="svg1"
   inkscape:version="1.4 (86a8ad7, 2024-10-11)"
   sodipodi:docname="ForceFinder_Detective.svg"
   xmlns:inkscape="http://www.inkscape.org/namespaces/inkscape"
   xmlns:sodipodi="http://sodipodi.sourceforge.net/DTD/sodipodi-0.dtd"
   xmlns:xlink="http://www.w3.org/1999/xlink"
   xmlns="http://www.w3.org/2000/svg"
   xmlns:svg="http://www.w3.org/2000/svg">
  <sodipodi:namedview
     id="namedview1"
     pagecolor="#505050"
     bordercolor="#eeeeee"
     borderopacity="1"
     inkscape:showpageshadow="0"
     inkscape:pageopacity="0"
     inkscape:pagecheckerboard="0"
     inkscape:deskcolor="#505050"
     inkscape:document-units="mm"
     inkscape:zoom="0.26205012"
     inkscape:cx="-97.30963"
     inkscape:cy="-719.32805"
     inkscape:window-width="1706"
     inkscape:window-height="897"
     inkscape:window-x="0"
     inkscape:window-y="25"
     inkscape:window-maximized="0"
     inkscape:current-layer="layer1" />
  <defs
     id="defs1">
    <linearGradient
       id="swatch21"
       inkscape:swatch="solid">
      <stop
         style="stop-color:#0c1e2f;stop-opacity:1;"
         offset="0"
         id="stop21" />
    </linearGradient>
    <linearGradient
       inkscape:collect="always"
       xlink:href="#swatch21"
       id="linearGradient41"
       gradientUnits="userSpaceOnUse"
       x1="-7707.9365"
       y1="883.16095"
       x2="1392.0627"
       y2="883.16095"
       gradientTransform="translate(-3086.3421,1248.408)" />
    <linearGradient
       inkscape:collect="always"
       xlink:href="#swatch21"
       id="linearGradient2"
       gradientUnits="userSpaceOnUse"
       gradientTransform="translate(-3086.3421,1248.408)"
       x1="-7707.9365"
       y1="883.16095"
       x2="1392.0627"
       y2="883.16095" />
    <linearGradient
       inkscape:collect="always"
       xlink:href="#swatch21"
       id="linearGradient3"
       gradientUnits="userSpaceOnUse"
       gradientTransform="translate(-3086.3421,1248.408)"
       x1="-7707.9365"
       y1="883.16095"
       x2="1392.0627"
       y2="883.16095" />
  </defs>
  <g
     inkscape:label="Layer 1"
     inkscape:groupmode="layer"
     id="layer1"
     transform="translate(278.79395,-43.573198)">
    <g
       id="Detective"
       transform="matrix(0.01985998,0,0,0.01985998,-141.38388,264.20813)">
      <path
         style="fill:#0a1b2c;fill-opacity:1;stroke-width:13.277"
         d="m -5234.63,-7205.0857 c 20.1818,-3.0518 50.0549,-2.9702 66.3848,0.1812 16.3298,3.1514 -0.1826,5.6483 -36.6942,5.5487 -36.5116,-0.1 -49.8724,-2.6782 -29.6906,-5.7299 z"
         id="path3" />
      <path
         style="fill:#0a1b2c;fill-opacity:1;stroke-width:13.277"
         d="m -4979.3465,-7246.5097 c -2.4326,-2.465 -45.0025,-4.1704 -94.5997,-3.7898 -83.7285,0.6426 -110.2162,-9.2757 -110.8745,-41.5168 -0.1118,-5.4768 26.6825,-9.9577 59.543,-9.9577 32.8605,0 59.7463,5.9746 59.7463,13.2769 0,19.5121 53.0361,16.2224 53.5115,-3.3192 0.2241,-9.2105 6.4262,-6.2562 13.9367,6.6384 17.084,29.3314 62.4995,29.9039 94.2304,1.1879 13.3988,-12.1258 28.6328,-17.7756 33.8533,-12.5551 5.2205,5.2205 0.9616,14.7638 -9.4643,21.2073 -12.9168,7.9831 2.0105,13.1494 46.8539,16.2163 55.3795,3.7874 49.3169,5.4987 -38.2519,10.7972 -57.234,3.4631 -106.0522,4.2797 -108.4847,1.8146 z"
         id="path4" />
      <ellipse
         style="display:inline;opacity:1;fill:#f2f2f2;fill-opacity:1;stroke:#ffffff;stroke-width:1.3523;stroke-opacity:1"
         id="path20"
         cx="-2131.5691"
         cy="-6244.2788"
         rx="4786.6978"
         ry="4786.6982" />
      <ellipse
         style="display:inline;opacity:1;fill:#0f212f;fill-opacity:1;stroke:url(#linearGradient2);stroke-width:1.28524;stroke-opacity:1"
         id="path20-8"
         cx="-6244.2788"
         cy="2131.5691"
         rx="4549.3569"
         ry="4549.3574"
         inkscape:transform-center-x="1403.0656"
         inkscape:transform-center-y="-142.0826"
         transform="rotate(90)" />
      <ellipse
         style="display:inline;opacity:1;fill:#41a5f9;fill-opacity:1;stroke:url(#linearGradient3);stroke-width:1.28524;stroke-opacity:1"
         id="ellipse40"
         cx="-6244.2788"
         cy="2131.5691"
         rx="4276.9766"
         ry="4276.9771"
         inkscape:transform-center-x="1403.0656"
         inkscape:transform-center-y="-142.0826"
         transform="rotate(90)" />
      <ellipse
         style="display:inline;opacity:1;fill:#0f212f;fill-opacity:1;stroke:url(#linearGradient41);stroke-width:1.28524;stroke-opacity:1"
         id="ellipse41"
         cx="-6244.2788"
         cy="2131.5691"
         rx="4067.4534"
         ry="4067.4539"
         inkscape:transform-center-x="1403.0656"
         inkscape:transform-center-y="-142.0826"
         transform="rotate(90)" />
      <path
         style="opacity:1;fill:#0b1c2c;fill-opacity:1;stroke:#0c1e2f;stroke-width:1.11656;stroke-opacity:1"
         d="m -4338.0665,-9126.6093 c 0,0 319.5983,-1221.3157 521.4314,-1622.4327 213.0789,-423.466 603.7871,-354.913 672.5413,-356.987 355.7836,37.516 366.2051,197.645 906.6028,268.222 556.4244,72.671 179.1744,2.397 953.1144,-223.451 773.94008,-225.849 1244.581255,1982.7993 1244.581255,1982.7993 323.429105,171.9413 714.853005,284.4642 849.586705,455.0445 339.43064,429.7378 -603.2611,806.3326 -1350.04532,1032.1812 -746.78434,225.8486 -1878.94494,372.8431 -2864.93594,84.6932 -885.4792,-258.7759 -973.3205,-148.5108 -1928.0614,-889.2788 -427.1137,-331.3906 997.7711,-785.2414 995.1848,-730.7907 z"
         id="path22-3"
         sodipodi:nodetypes="cscsscssssc" />
      <path
         style="opacity:1;fill:#fdfffe;fill-opacity:1;stroke:#0c1e2f;stroke-opacity:1"
         d="m -4124.943,-8975.7994 c 0,0 272.7749,-1264.6836 409.1623,-1636.6496 136.3875,-371.965 632.3418,-347.168 632.3418,-347.168 0,0 384.3646,223.18 892.7177,285.174 508.3532,61.994 185.9829,-74.393 892.7177,-272.775 706.7349,-198.381 1066.30176,1884.6266 1066.30176,1884.6266 0,0 309.971395,223.1795 781.128,384.3646 471.15664,161.1851 -508.353205,657.1394 -1190.29026,855.5212 -681.9372,198.3817 -1715.7865,327.4992 -2616.1589,74.3931 -808.5884,-227.3045 -864.1534,-162.2154 -1760.6378,-781.128 -356.773,-246.308 933.0939,-442.9942 892.7177,-446.3589 z"
         id="path22"
         sodipodi:nodetypes="cscsscssssc" />
      <path
         style="opacity:1;fill:#fdfffe;fill-opacity:1;stroke:#0c1e2f;stroke-opacity:1"
         d="m -3740.5783,-7450.7399 c 983.7682,264.1636 2087.8623,250.1263 2950.92799,-24.7977 0,0 12.39885,483.5554 -61.99429,681.9371 -74.39315,198.3817 -247.9772,830.7235 -471.1566,1128.2961 -223.1794,297.5725 -520.752,396.7634 -743.9314,458.7577 -223.1794,61.9943 -483.5554,-37.1966 -706.7349,-198.3817 -223.1794,-161.1852 -334.7691,-235.5783 -533.1508,-520.752 -198.3817,-285.1738 -433.96,-1525.0595 -433.96,-1525.0595 z"
         id="path23"
         sodipodi:nodetypes="ccsssssc" />
      <path
         style="opacity:0.515439;fill:#b4b3af;fill-opacity:1;stroke:#0c1e2f;stroke-opacity:1"
         d="m -3705.1951,-7441.5341 c 306.694,147.7192 531.2422,166.8686 813.2491,175.5052 162.188,4.9672 335.3066,33.6273 526.0037,6.9313 267.2485,-37.4125 109.5125,816.0295 102.1921,1055.6541 0,0 -423.5825,131.8471 -358.4193,333.4492 80.4487,248.8922 831.6288,55.5422 477.0561,175.7322 -194.8186,66.038 -129.0874,131.2387 -134.7241,239.6195 -4.7107,90.5752 110.1698,112.476 179.7938,135.0233 241.8784,78.3305 21.3348,88.5054 -70.5695,91.6878 -231.4909,8.016 -371.562,-43.4184 -594.7415,-204.6035 -223.1794,-161.1852 -306.6587,-254.3186 -505.0404,-539.4923 -198.3817,-285.1738 -434.8,-1469.5068 -434.8,-1469.5068 z"
         id="path23-7"
         sodipodi:nodetypes="csscsssssssc" />
      <path
         style="opacity:1;fill:#0e1e2b;fill-opacity:1;stroke:#0c1e2f;stroke-opacity:1"
         d="m -2823.0629,-5938.0793 c 396.7634,-33.0636 776.995,-33.0636 1140.6948,0 -102.4512,-119.3422 -104.6368,-249.122 -557.9486,-272.7749 -493.5491,41.0416 -453.9154,170.9469 -582.7462,272.7749 z"
         id="path24"
         sodipodi:nodetypes="cccc" />
      <path
         style="opacity:1;fill:#0e1e2b;fill-opacity:1;stroke:#0c1e2f;stroke-opacity:1"
         d="m -4125.4298,-8977.0077 112.5767,-581.3053 c 1226.344,441.6315 2472.293,396.7419 3655.29448,-144.0563 65.69716,209.472 111.73528,423.3292 149.03648,634.6942 -1687.42216,953.0123 -2879.67626,677.5806 -3916.90766,90.6674 z"
         id="path26"
         sodipodi:nodetypes="ccccc" />
      <path
         style="opacity:1;fill:#0f1f2e;fill-opacity:1;stroke:#0c1e2f;stroke-opacity:1"
         d="m -3734.4952,-7367.7557 c 0,0 35.8414,-3.2583 78.1993,42.358 42.358,45.6163 123.8157,439.8712 182.4652,625.5947 58.6495,185.7234 149.882,492.0041 306.2807,768.9601 156.3987,276.956 374.7051,381.2218 374.7051,381.2218 0,0 -185.7234,-303.0225 -303.0224,-553.912 -117.299,-250.8895 -140.1071,-348.6387 -182.4651,-687.5025 -42.358,-338.8638 6.5166,-439.8712 6.5166,-439.8712 l 1000.2998,-26.0665 -1479.2707,-198.7566 z"
         id="path27" />
      <path
         style="opacity:1;fill:#0f1f2e;fill-opacity:1;stroke:#0c1e2f;stroke-width:0.808915;stroke-opacity:1"
         d="m -2432.7668,-6508.4972 c 62.579,53.6392 102.1386,95.1403 202.8191,89.3634 105.8179,-6.0717 146.7172,-63.1047 196.377,-98.1797 49.7734,-35.1553 83.0478,-137.7882 13.6216,-132.6904 -52.2337,3.8355 -110.4969,42.9125 -217.7603,46.1775 -122.1256,3.7175 -193.0244,-46.2567 -239.8627,-26.8195 -59.5428,24.7093 44.8053,122.1487 44.8053,122.1487 z"
         id="path28"
         sodipodi:nodetypes="csssssc" />
      <path
         style="opacity:0.168646;fill:#0b1c2c;fill-opacity:1;stroke:#0c1e2f;stroke-opacity:1"
         d="m -1076.8974,-7915.0262 c -599.6071,36.7132 -1174.7353,183.3031 -1768.412,137.2218 -705.574,-54.7667 -1409.1878,-324.2752 -2090.5773,-796.8781 l 804.7807,-283.6522 450.7541,-710.2334 125.3241,-723.4079 c 124.4401,-317.44 287.5087,-263.822 400.2131,-248.482 118.3774,16.112 171.5106,105.545 323.2316,197.897 151.7209,92.351 323.0838,218.068 441.9697,263.862 108.6253,41.842 223.6541,24.232 244.0728,32.983 5.7251,42.938 1.1382,56.4175 -6.5966,92.3519 -9.4115,43.7246 -6.5301,463.3523 120.7057,728.7566 189.583,395.4556 -929.6165,688.2791 -929.6165,688.2791 205.0862,87.1985 658.3758,180.4956 812.1729,250.9264 166.3313,76.1708 76.8434,254.6039 194.7197,267.1524 604.6035,64.3628 579.5957,82.1171 877.258,103.2234 z"
         id="path29"
         sodipodi:nodetypes="csccccssscsscssc" />
      <path
         style="opacity:1;fill:none;fill-opacity:1;stroke:#fdfffe;stroke-width:250;stroke-dasharray:none;stroke-opacity:1"
         d="m -5324.526,-4652.6706 c 437.3065,-678.4923 846.3168,-1392.3547 1401.4518,-1923.5613 -415.5944,-344.0668 -436.1907,-703.3259 -457.9908,-1062.5386 -385.8892,-125.5526 -744.9303,-326.2799 -1053.3788,-668.6665"
         id="path30"
         sodipodi:nodetypes="cccc" />
      <path
         style="opacity:1;fill:#fdfffe;fill-opacity:1;stroke:#fdfffe;stroke-width:1;stroke-dasharray:none;stroke-opacity:1"
         d="m -3690.9596,-6181.166 c 16.287,174.3935 89.5919,206.2423 138.7813,298.3798 0,0 -55.5125,97.147 -131.8423,367.7706 -76.3297,270.6236 -41.6344,541.2472 -41.6344,541.2472 l 208.172,693.9068 999.2257,1942.9387 c -704.3295,-387.0079 -1404.2151,-785.8661 -2053.9639,-1318.4227 284.4433,-215.1988 574.1371,-422.5217 895.1397,-582.8816 -374.1836,-156.2167 -672.2824,-325.1142 -1144.9461,-464.9175 49.5095,-124.8362 661.6796,-1008.439 1131.068,-1478.0213 z"
         id="path31"
         sodipodi:nodetypes="ccsccccccc" />
      <path
         style="opacity:0.67696;fill:#808080;fill-opacity:1;stroke:#fdfffe;stroke-width:1;stroke-dasharray:none;stroke-opacity:1"
         d="m -2747.4618,-2512.4856 c 0,0 -253.7705,-252.6309 -366.9559,-405.9937 -109.306,-148.1063 -374.7635,-713.5437 -437.224,-882.2557 -58.3905,-157.7185 -58.5568,-374.7634 -58.5568,-374.7634 -26.1763,-20.9411 -778.9897,428.8899 -788.5648,484.0695 -21.0829,121.4965 1651.3015,1183.4685 1651.3015,1178.9433 z"
         id="path32"
         sodipodi:nodetypes="csscsc" />
      <path
         style="opacity:0.769596;fill:#808080;fill-opacity:1;stroke:#fdfffe;stroke-width:1;stroke-dasharray:none;stroke-opacity:1"
         d="m -3636.2343,-4291.9603 c -333.5288,-148.2599 -621.5393,-293.8423 -1100.2729,-450.6437 236.6719,-359.2613 346.7619,-641.6693 1065.1578,-1293.4059 l 111.1978,158.018 c 0,0 -0.1776,3.0383 -47.6608,101.1383 -21.5894,44.6037 -47.2773,116.5701 -69.3895,214.8975 -69.1783,307.6187 -66.3557,330.2213 -58.5251,561.8415 3.4879,103.1683 63.3333,244.2903 97.8728,368.1964 44.6661,160.2341 83.3747,284.4492 83.3747,284.4492 z"
         id="path33"
         sodipodi:nodetypes="ccccsssscc" />
      <path
         style="opacity:0.758;fill:#ffffff;fill-opacity:1;stroke:#fdfffe;stroke-width:1;stroke-dasharray:none;stroke-opacity:1"
         d="m -2107.9105,-4585.5879 c 389.5905,-245.2693 808.8924,-485.2448 1059.7275,-869.2695 61.04536,334.4628 187.3558,582.9529 -454.169,1670.1695 -168.8478,-266.9667 -371.5994,-533.9333 -605.5585,-800.9 z"
         id="path34"
         sodipodi:nodetypes="cccc" />
      <path
         style="opacity:0.758;fill:#ffffff;fill-opacity:1;stroke:#fdfffe;stroke-width:1;stroke-dasharray:none;stroke-opacity:1"
         d="m -2386.2721,-4580.7044 c -387.745,-215.5372 -753.9014,-459.8591 -1025.5427,-830.2012 -61.3538,604.16 203.5859,1103.9061 459.0525,1606.6836 z"
         id="path35"
         sodipodi:nodetypes="cccc" />
      <path
         style="opacity:0.513064;fill:#808080;fill-opacity:1;stroke:#fdfffe;stroke-width:1;stroke-dasharray:none;stroke-opacity:1"
         d="m -2786.7221,-4483.0336 c 48.8354,107.4378 43.9518,78.1366 39.0683,161.1567 -4.8835,83.0201 -180.6909,376.0323 -180.6909,376.0323 -242.0866,-398.5114 -383.0004,-824.0022 -429.7512,-1274.6031 186.089,235.9747 338.9163,397.1103 571.3738,737.4141 z"
         id="path36"
         sodipodi:nodetypes="csccc" />
      <path
         style="opacity:1;fill:#ffffff;fill-opacity:1;stroke:#fdfffe;stroke-width:1;stroke-dasharray:none;stroke-opacity:1"
         d="m -2860.3145,-3470.4292 c 62.7282,145.2935 128.4309,284.638 207.7848,396.6801 l 163.7093,-673.7265 -113.3372,-69.2617 z"
         id="path37"
         sodipodi:nodetypes="ccccc" />
      <path
         style="opacity:1;fill:#ffffff;fill-opacity:1;stroke:#fdfffe;stroke-width:1;stroke-dasharray:none;stroke-opacity:1"
         d="m -895.80349,-5907.1785 c 590.17113,1014.0782 -558.29051,2375.883 -837.43581,3563.8245 551.1116,-507.8618 1198.74093,-907.1411 1630.79606,-1548.9414 l -680.02307,-346.308 1070.40667,-453.3487 C 148.83656,-5052.8965 38.261555,-5396.4453 -769.87329,-6165.3354 Z"
         id="path38"
         sodipodi:nodetypes="ccccccc" />
      <path
         style="opacity:0.862233;fill:#808080;fill-opacity:1;stroke:#fdfffe;stroke-width:1;stroke-dasharray:none;stroke-opacity:1"
         d="m -832.83839,-6064.5912 c 419.50115,468.5952 715.84675,908.2127 850.028845,1309.674 -237.858695,196.9456 -536.717185,363.3912 -875.214885,510.0173 597.91756,368.467 407.0411,293.2375 522.61031,390.3836 -316.5968,501.9495 -775.85788,861.2347 -1183.74388,1271.895 93.5629,-499.0019 280.1981,-969.4101 483.2255,-1449.8508 247.85669,-586.524 483.09266,-1188.0002 140.12901,-1874.7064 z"
         id="path39"
         sodipodi:nodetypes="cccccscc" />
      <path
         style="opacity:1;fill:#ffffff;fill-opacity:1;stroke:#fdfffe;stroke-width:1;stroke-dasharray:none;stroke-opacity:1"
         d="m -1860.7051,-3122.6648 c 0,0 132.6467,-112.135 223.1252,-212.7473 91.2426,-101.462 -25.9448,-160.8577 -25.9448,-160.8577 -95.733,-99.1158 -167.1004,-215.8289 -249.07,-342.4713 l -93.4013,72.6454 z"
         id="path40"
         sodipodi:nodetypes="cscccc" />
      <path
         style="opacity:1;fill:none;fill-opacity:1;stroke:#fdfffe;stroke-width:250;stroke-dasharray:none;stroke-opacity:1"
         d="m 993.49096,-8408.2331 c -30.423,251.4279 -461.0023,502.8559 -1047.616405,754.2838 15.668,633.2904 -246.036485,781.179 -439.998835,1047.6163 675.95103,691.3347 529.014574,529.2309 944.95007,1060.0483 216.28945,446.2951 375.14706,807.837 402.35439,967.1591"
         id="path41"
         sodipodi:nodetypes="ccccc" />
    </g>
  </g>
</svg>
